What if God were a Loner Head Banger Heshan, would he smite the evil bully at your school, get you free porn, wake your Dad from his Pain Killer Fog, fuck the check-out Girl and take Grandma for a walk? Sometimes to change we have to go where we dont want - get out of our comfort zone, and sometimes, were forced out.... Embrace the Change.

Format                           : AVI
Format/Info                      : Audio Video Interleave
Format profile                   : OpenDML
File size                        : 1.63 GiB
Duration                         : 1h 45mn
Overall bit rate                 : 2 204 Kbps
Writing application              : Lavf51.12.1

Video
ID                               : 0
Format                           : xvid
Codec ID                         : xvid
Duration                         : 1h 45mn
Bit rate                         : 2 061 Kbps
Width                            : 986 pixels
Height                           : 420 pixels
Display aspect ratio             : 2.35:1
Frame rate                       : 29.970 fps
Bits/(Pixel*Frame)               : 0.166
Stream size                      : 1.53 GiB (94%)

Audio
ID                               : 1
Format                           : MPEG Audio
Format version                   : Version 1
Format profile                   : Layer 3
Mode                             : Joint stereo
Mode extension                   : MS Stereo
Codec ID                         : 55
Codec ID/Hint                    : MP3
Duration                         : 1h 45mn
Bit rate mode                    : Constant
Bit rate                         : 128 Kbps
Channel(s)                       : 2 channels
Sampling rate                    : 44.1 KHz
Compression mode                 : Lossy
Stream size                      : 35.1 MiB (2%)
Alignment                        : Aligned on interleaves
Interleave, duration             : 72 ms (2.16 video frames)
Interleave, preload duration     : 26 ms
Writing library                  : LAME3.97

